<?xml version="1.0" encoding="utf-8"?> <!-- Generator: Adobe Illustrator 16.0.4, SVG Export Plug-In . SVG Version: 6.00 Build 0) --> <!DOCTYPE svg PUBLIC "-//W3C//DTD SVG 1.1//EN"
    "http://www.w3.org/Graphics/SVG/1.1/DTD/svg11.dtd">
<svg version="1.1" xmlns="http://www.w3.org/2000/svg" xmlns:xlink="http://www.w3.org/1999/xlink" x="0px" y="0px" width="566.93px" height="566.93px" viewBox="0 0 566.93 566.93" enable-background="new 0 0 566.93 566.93" xml:space="preserve">
<g id="Layer_2">
<rect fill="#F78F1E" width="566.93" height="566.93"/>
</g>
<g id="Layer_1">
<path fill="#FFFFFF" d="M347.695,212.617v-46.669c16.131-4.468,27.995-19.224,27.995-36.775c0-21.102-17.11-38.202-38.201-38.202 c-21.105,0-38.205,17.105-38.205,38.202c0,16.221,10.123,30.045,24.394,35.583v47.861c-13.165,1.57-25.548,5.644-36.648,11.792 L156.363,126.17c1.979-4.861,3.098-10.168,3.098-15.741c0-23.09-18.714-41.804-41.804-41.804 c-23.095,0-41.809,18.714-41.809,41.804c0,23.09,18.714,41.804,41.809,41.804c8.781,0,16.922-2.718,23.652-7.344l125.512,94.368 c-19.463,18.334-31.683,44.278-31.683,73.126c0,36.074,19.06,67.613,47.591,85.357l-31.106,49.514 c-1.158-0.131-2.325-0.217-3.516-0.217c-16.913,0-30.632,13.715-30.632,30.631c0,16.918,13.714,30.637,30.632,30.637 c16.922,0,30.64-13.715,30.64-30.637c0-6.949-2.344-13.344-6.259-18.488l32.159-51.178c9.784,3.168,20.202,4.932,31.038,4.932 c55.529,0,100.552-45.018,100.552-100.551C436.238,260.92,397.551,218.559,347.695,212.617z M337.129,371.352 c-32.442,0-58.741-26.305-58.741-58.742c0-32.448,26.306-58.741,58.741-58.741c32.437,0,58.741,26.299,58.741,58.741 C395.874,345.047,369.571,371.352,337.129,371.352z"/>
</g>
</svg>
