<?xml version="1.0" encoding="utf-8"?>
<!-- Generator: Adobe Illustrator 16.0.4, SVG Export Plug-In . SVG Version: 6.00 Build 0)  -->
<!DOCTYPE svg PUBLIC "-//W3C//DTD SVG 1.1//EN" "http://www.w3.org/Graphics/SVG/1.1/DTD/svg11.dtd">
<svg version="1.1" id="Layer_1" xmlns="http://www.w3.org/2000/svg" xmlns:xlink="http://www.w3.org/1999/xlink" x="0px" y="0px"
	 width="566.93px" height="566.93px" viewBox="0 0 566.93 566.93" enable-background="new 0 0 566.93 566.93" xml:space="preserve">
<path fill="#F78F1E" d="M349.252,192.964v-55.864c19.309-5.348,33.51-23.011,33.51-44.02c0-25.259-20.48-45.728-45.727-45.728
	c-25.264,0-45.732,20.475-45.732,45.728c0,19.417,12.118,35.964,29.2,42.593v57.291c-15.759,1.879-30.581,6.755-43.869,14.116
	L120.225,89.487c2.369-5.819,3.709-12.172,3.709-18.842c0-27.639-22.401-50.04-50.04-50.04c-27.645,0-50.045,22.401-50.045,50.04
	c0,27.639,22.4,50.04,50.045,50.04c10.51,0,20.256-3.254,28.312-8.792l150.239,112.959c-23.297,21.947-37.925,53.001-37.925,87.534
	c0,43.18,22.814,80.934,56.967,102.172l-37.234,59.269c-1.386-0.156-2.783-0.259-4.208-0.259c-20.245,0-36.667,16.416-36.667,36.666
	s16.416,36.671,36.667,36.671c20.256,0,36.677-16.416,36.677-36.671c0-8.319-2.807-15.975-7.492-22.131l38.494-61.262
	c11.712,3.793,24.183,5.903,37.153,5.903c66.469,0,120.361-53.885,120.361-120.358C455.238,250.783,408.929,200.077,349.252,192.964
	z M336.604,382.971c-38.834,0-70.313-31.487-70.313-70.315c0-38.839,31.487-70.312,70.313-70.312
	c38.827,0,70.313,31.479,70.313,70.312C406.922,351.483,375.438,382.971,336.604,382.971z"/>
</svg>