<?xml version="1.0" encoding="utf-8"?>
<!-- Generator: Adobe Illustrator 21.0.2, SVG Export Plug-In . SVG Version: 6.00 Build 0)  -->
<svg version="1.1" id="Layer_1" xmlns="http://www.w3.org/2000/svg" xmlns:xlink="http://www.w3.org/1999/xlink" x="0px" y="0px"
	 viewBox="0 0 566.9 566.9" style="enable-background:new 0 0 566.9 566.9;" xml:space="preserve">
<style type="text/css">
	.st0{fill:#F78F1E;}
</style>
<path class="st0" d="M449.3,193v-55.9c19.3-5.3,33.5-23,33.5-44c0-25.3-20.5-45.7-45.7-45.7c-25.3,0-45.7,20.5-45.7,45.7
	c0,19.4,12.1,36,29.2,42.6V193c-15.8,1.9-30.6,6.8-43.9,14.1L220.2,89.5c2.4-5.8,3.7-12.2,3.7-18.8c0-27.6-22.4-50-50-50
	c-27.6,0-50,22.4-50,50s22.4,50,50,50c10.5,0,20.3-3.3,28.3-8.8l150.2,113c-23.3,21.9-37.9,53-37.9,87.5c0,43.2,22.8,80.9,57,102.2
	l-37.2,59.3c-1.4-0.2-2.8-0.3-4.2-0.3c-20.2,0-36.7,16.4-36.7,36.7s16.4,36.7,36.7,36.7c20.3,0,36.7-16.4,36.7-36.7
	c0-8.3-2.8-16-7.5-22.1l38.5-61.3c11.7,3.8,24.2,5.9,37.2,5.9c66.5,0,120.4-53.9,120.4-120.4C555.2,250.8,508.9,200.1,449.3,193z
	 M436.6,383c-38.8,0-70.3-31.5-70.3-70.3c0-38.8,31.5-70.3,70.3-70.3c38.8,0,70.3,31.5,70.3,70.3C506.9,351.5,475.4,383,436.6,383z"
	/>
<path class="st0" d="M156.8,212l-32,27.4l96.6,112.7H0v42.1h221.4L124.8,507l32,27.4L295,373.2L156.8,212z"/>
</svg>
