<?xml version="1.0" encoding="UTF-8"?>
<!-- Generated by Pixelmator Pro 2.4.3 -->
<svg width="16" height="16" viewBox="0 0 16 16" xmlns="http://www.w3.org/2000/svg" xmlns:xlink="http://www.w3.org/1999/xlink">
    <g id="Group">
        <path id="Path" fill="#000000" stroke="none" d="M 15.593921 4.923246 L 14.322903 4.923246 C 14.322903 2.207255 12.115648 0 9.399657 0 C 8.516016 0.000259 7.648733 0.238338 6.888802 0.689255 L 7.389332 1.485179 C 7.980121 1.140553 8.66117 0.927212 9.399657 0.927212 C 11.598707 0.927212 13.395692 2.71599 13.395692 4.923246 L 12.231344 4.923246 C 12.156639 4.923152 12.08779 4.963677 12.051612 5.029037 C 12.015432 5.094398 12.017647 5.174258 12.057389 5.237514 L 13.738678 7.927247 C 13.776164 7.987225 13.841904 8.023661 13.912633 8.023661 C 13.983361 8.023661 14.049101 7.987225 14.086587 7.927247 L 15.767876 5.237514 C 15.807619 5.174258 15.809833 5.094398 15.773654 5.029037 C 15.737475 4.963677 15.668626 4.923152 15.593921 4.923246 Z M 11.344339 8.394135 C 10.76996 8.722351 10.113527 8.919281 9.399657 8.919281 C 7.200607 8.919281 5.403623 7.130501 5.403623 4.923246 L 6.56797 4.923246 C 6.642675 4.92334 6.711524 4.882814 6.747703 4.817454 C 6.783881 4.752094 6.781668 4.672235 6.741925 4.608979 L 5.060636 1.919246 C 5.02315 1.859267 4.95741 1.82283 4.886682 1.82283 C 4.815953 1.82283 4.750213 1.859267 4.712727 1.919246 L 3.031438 4.608979 C 2.991695 4.672235 2.989482 4.752094 3.02566 4.817454 C 3.061839 4.882814 3.130688 4.92334 3.205393 4.923246 L 4.476411 4.923246 C 4.476411 7.639237 6.683666 9.846493 9.399657 9.846493 C 10.294047 9.846493 11.122793 9.608536 11.844869 9.19006 L 11.344339 8.394135 Z"/>
    </g>
    <g id="Group-copy">
        <path id="path1" fill="#000000" stroke="none" d="M 6.65 13.2 L 4.2 13.2 L 4.2 15.65 C 4.2 15.860001 4.06 16 3.85 16 L 3.15 16 C 2.94 16 2.8 15.860001 2.8 15.65 L 2.8 13.2 L 0.35 13.2 C 0.14 13.2 -0 13.06 -0 12.85 L -0 12.15 C -0 11.940001 0.14 11.8 0.35 11.8 L 2.8 11.8 L 2.8 9.35 C 2.8 9.139999 2.94 9 3.15 9 L 3.85 9 C 4.06 9 4.2 9.139999 4.2 9.35 L 4.2 11.8 L 6.65 11.8 C 6.86 11.8 7 11.940001 7 12.15 L 7 12.85 C 7 13.06 6.86 13.2 6.65 13.2 Z"/>
    </g>
</svg>
