<?xml version="1.0" encoding="UTF-8"?>
<svg width="567px" height="567px" viewBox="0 0 567 567" xmlns="http://www.w3.org/2000/svg" xmlns:xlink="http://www.w3.org/1999/xlink" version="1.1">
 <!-- Generated by Pixelmator Pro 2.0.4 -->
 <path id="Path" d="M449.3 193 L449.3 137.1 C468.6 131.8 482.8 114.1 482.8 93.1 482.8 67.8 462.3 47.4 437.1 47.4 411.8 47.4 391.4 67.9 391.4 93.1 391.4 112.5 403.5 129.1 420.6 135.7 L420.6 193 C404.8 194.9 390 199.8 376.7 207.1 L220.2 89.5 C222.6 83.7 223.9 77.3 223.9 70.7 223.9 43.1 201.5 20.7 173.9 20.7 146.3 20.7 123.9 43.1 123.9 70.7 123.9 98.3 146.3 120.7 173.9 120.7 184.4 120.7 194.2 117.4 202.2 111.9 L352.4 224.9 C329.1 246.8 314.5 277.9 314.5 312.4 314.5 355.6 337.3 393.3 371.5 414.6 L334.3 473.9 C332.9 473.7 331.5 473.6 330.1 473.6 309.9 473.6 293.4 490 293.4 510.3 293.4 530.6 309.8 547 330.1 547 350.4 547 366.8 530.6 366.8 510.3 366.8 502 364 494.3 359.3 488.2 L397.8 426.9 C409.5 430.7 422 432.8 435 432.8 501.5 432.8 555.4 378.9 555.4 312.4 555.2 250.8 508.9 200.1 449.3 193 Z M436.6 383 C397.8 383 366.3 351.5 366.3 312.7 366.3 273.9 397.8 242.4 436.6 242.4 475.4 242.4 506.9 273.9 506.9 312.7 506.9 351.5 475.4 383 436.6 383 Z" fill="#f78f1e" fill-opacity="1" stroke="none"/>
 <g id="-copy">
  <path id="Path-1" d="M233.748 323.849 L58.958 323.849 58.958 288.891 233.748 288.891 Z M216.269 341.328 L58.958 341.328 58.958 358.807 198.79 358.807 Z M111.395 446.202 L58.958 446.202 58.958 463.681 93.916 463.681 Z M181.311 376.286 L58.958 376.286 58.958 393.765 163.832 393.765 Z M146.353 411.244 L58.958 411.244 58.958 428.723 128.874 428.723 Z" fill="#f78f1e" fill-opacity="1" stroke="none"/>
  <path id="Path-2" d="M251.227 481.16 L233.748 481.16 216.269 498.639 259.966 498.639 C265.21 498.639 268.706 495.143 268.706 489.899 L268.706 446.202 251.227 463.681 Z" fill="#f78f1e" fill-opacity="1" stroke="none"/>
  <path id="Path-3" d="M93.916 481.16 L41.479 481.16 41.479 271.412 251.227 271.412 251.227 323.849 268.706 323.849 268.706 262.672 C268.706 257.429 265.21 253.933 259.966 253.933 L32.739 253.933 C27.496 253.933 24 257.429 24 262.672 L24 489.899 C24 495.143 27.496 498.639 32.739 498.639 L93.916 498.639 Z" fill="#f78f1e" fill-opacity="1" stroke="none"/>
  <path id="Path-4" d="M254.723 362.303 L282.689 390.269 C284.437 392.017 284.437 395.513 282.689 397.26 L259.966 419.983 225.008 385.025 247.731 362.303 C249.479 360.555 252.975 360.555 254.723 362.303 Z M130.622 479.412 L216.269 393.765 251.227 428.723 165.58 514.37 C163.832 516.118 163.832 516.118 162.084 516.118 L128.874 516.118 128.874 482.908 C128.874 481.16 128.874 481.16 130.622 479.412 Z" fill="#f78f1e" fill-opacity="1" stroke="none"/>
 </g>
</svg>
