<svg version="1.1" id="Layer_1" xmlns="http://www.w3.org/2000/svg" x="0px" y="0px"
     viewBox="0 0 180 180" xml:space="preserve">
<path fill="#F78F1E" d="M100.908,73.984v-9.716c3.358-0.93,5.828-4.002,5.828-7.656c0-4.393-3.562-7.953-7.953-7.953
	c-4.394,0-7.954,3.561-7.954,7.953c0,3.377,2.108,6.255,5.079,7.408v9.964c-2.741,0.327-5.319,1.175-7.63,2.455L61.075,55.987
	c0.412-1.012,0.645-2.117,0.645-3.277c0-4.807-3.896-8.703-8.703-8.703c-4.808,0-8.704,3.896-8.704,8.703s3.896,8.703,8.704,8.703
	c1.828,0,3.523-0.566,4.924-1.529l26.13,19.646c-4.052,3.817-6.596,9.218-6.596,15.224c0,7.51,3.968,14.076,9.908,17.77
	l-6.476,10.308c-0.241-0.027-0.484-0.045-0.732-0.045c-3.521,0-6.377,2.855-6.377,6.377c0,3.522,2.855,6.378,6.377,6.378
	c3.523,0,6.379-2.855,6.379-6.378c0-1.447-0.488-2.778-1.303-3.849l6.695-10.655c2.037,0.66,4.206,1.027,6.462,1.027
	c11.56,0,20.933-9.372,20.933-20.933C119.341,84.04,111.287,75.221,100.908,73.984z M98.708,107.03
	c-6.754,0-12.229-5.476-12.229-12.229c0-6.755,5.476-12.229,12.229-12.229s12.229,5.475,12.229,12.229
	C110.938,101.554,105.462,107.03,98.708,107.03z"/>
</svg>
